<svg xmlns="http://www.w3.org/2000/svg" xmlns:xlink="http://www.w3.org/1999/xlink" xmlns:sketch="http://www.bohemiancoding.com/sketch/ns" viewBox="0 0 30 30" version="1.1" x="0px" y="0px">
  <title>interface_044-window-headphone-music-audio-application</title>
  <desc>Created with Sketch.</desc>
  <g stroke="none" stroke-width="1" fill="none" fill-rule="evenodd" sketch:type="MSPage">
  <g sketch:type="MSArtboardGroup" transform="translate(-360.000000, -180.000000)" fill="#000000">
  <g sketch:type="MSLayerGroup" transform="translate(363.000000, 183.000000)">
  <path d="M0,0.5 L0,22.5 C0,22.7761424 0.2238576,23 0.5,23 L24.5,23 C24.7761424,23 25,22.7761424 25,22.5 L25,0.5 C25,0.2238576 24.7761424,0 24.5,0 L0.5,0 C0.2238576,0 0,0.2238576 0,0.5 Z M1,4 L24,4 L24,22 L1,22 L1,4 Z M2,3 C2.5522847,3 3,2.5522847 3,2 C3,1.4477153 2.5522847,1 2,1 C1.4477153,1 1,1.4477153 1,2 C1,2.5522847 1.4477153,3 2,3 Z M5,3 C5.5522847,3 6,2.5522847 6,2 C6,1.4477153 5.5522847,1 5,1 C4.4477153,1 4,1.4477153 4,2 C4,2.5522847 4.4477153,3 5,3 Z M8,3 C8.5522847,3 9,2.5522847 9,2 C9,1.4477153 8.5522847,1 8,1 C7.4477153,1 7,1.4477153 7,2 C7,2.5522847 7.4477153,3 8,3 Z" sketch:type="MSShapeGroup"></path>
  <path d="M19.5,14 C19.7761424,14 20,14.2157526 20,14.495389 L20,16.504611 C20,16.7782068 19.7680664,17 19.5,17 L19,17 C19,17.5522847 18.3342028,18 17.5,18 C16.6715729,18 16,17.3256778 16,16.4998351 L16,14.5001649 C16,13.6716467 16.6657972,13 17.5,13 C18.3284271,13 19,13.6725626 19,14 L19.5,14 Z" sketch:type="MSShapeGroup"></path>
  <path d="M8.5,14 C8.77614237,14 9,14.2157526 9,14.495389 L9,16.504611 C9,16.7782068 8.76806641,17 8.5,17 L8,17 C8,17.5522847 7.33420277,18 6.5,18 C5.67157288,18 5,17.3256778 5,16.4998351 L5,14.5001649 C5,13.6716467 5.66579723,13 6.5,13 C7.32842712,13 8,13.6725626 8,14 L8.5,14 Z" sketch:type="MSShapeGroup" transform="translate(7.000000, 15.500000) scale(-1, 1) translate(-7.000000, -15.500000) "></path>
  <path d="M18,12.5 C18,9.46243388 15.5375661,7 12.5,7 C9.46243388,7 7,9.46243388 7,12.5 L7,16.5 C7,16.7761424 7.22385763,17 7.5,17 C7.77614237,17 8,16.7761424 8,16.5 L8,12.5 C8,10.0147186 10.0147186,8 12.5,8 C14.9852814,8 17,10.0147186 17,12.5 L17,16.5 C17,16.7761424 17.2238576,17 17.5,17 C17.7761424,17 18,16.7761424 18,16.5 L18,12.5 Z" sketch:type="MSShapeGroup"></path>
</g></g></g></svg>
